<svg width="56" height="36" fill="none" xmlns="http://www.w3.org/2000/svg"><path d="M56 18.543l-.002-.032a1.273 1.273 0 00-1.289-1.24h-.338l-5.228-9.94c-.22-.42-.66-.68-1.146-.681l-8.925-.002.34-2.654c.098-1.061-.236-2.063-.939-2.82C37.772.416 36.793 0 35.715 0h-27.7A1.36 1.36 0 006.66 1.213L6.382 3.4h15.783c1.024 0 1.834.817 1.807 1.825-.027 1.008-.88 1.825-1.904 1.825h-5.265l.003.01H1.347C.622 7.06.019 7.636 0 8.35a1.26 1.26 0 001.278 1.29h20.466a1.9 1.9 0 011.634 1.93c-.029 1.075-.933 1.946-2.023 1.955H7.245c-.732 0-1.341.583-1.36 1.303-.02.72.558 1.304 1.29 1.304H21.12a1.902 1.902 0 011.662 1.934c-.03 1.08-.943 1.955-2.04 1.955H4.743l-1.344.002c-.732 0-1.341.583-1.36 1.303-.02.72.558 1.304 1.29 1.304h1.16l-.453 4.668c-.098 1.061.236 2.063.939 2.82.701.757 1.68 1.174 2.758 1.174h1C9.212 33.974 11.572 36 14.457 36c2.886 0 5.353-2.026 5.973-4.708h12.487c1.01 0 1.966-.38 2.715-1.001.686.647 1.595 1.001 2.587 1.001h.205C38.9 33.974 41.26 36 44.145 36c2.886 0 5.353-2.026 5.972-4.708h.825c2.147 0 4.051-1.717 4.245-3.827l.807-8.8c.001-.013 0-.022.002-.036 0-.018.003-.037.004-.054v-.032zm-41.474 14.85c-1.827 0-3.275-1.462-3.227-3.259.048-1.797 1.573-3.259 3.4-3.259s3.275 1.462 3.227 3.26c-.048 1.796-1.573 3.258-3.4 3.258zm29.689 0c-1.828 0-3.275-1.462-3.227-3.259.048-1.797 1.573-3.259 3.4-3.259s3.275 1.462 3.227 3.26c-.048 1.796-1.573 3.258-3.4 3.258zm8.33-6.095c-.068.752-.77 1.387-1.534 1.387h-.892c-.59-2.536-2.881-4.417-5.662-4.417-2.78 0-5.172 1.881-5.897 4.417h-.273c-.337 0-.637-.124-.846-.35a1.11 1.11 0 01-.28-.87l1.672-18.209h3.838l-.609 6.63c-.097 1.06.236 2.062.94 2.82.7.756 1.68 1.173 2.758 1.173h7.467l-.681 7.42z" fill="#86D141"/></svg>