<svg width="33" height="36" fill="none" xmlns="http://www.w3.org/2000/svg"><path fill-rule="evenodd" clip-rule="evenodd" d="M27.163 4.446a.864.864 0 01-.422-.108C23.221 2.556 20.177 1.8 16.528 1.8c-3.631 0-7.079.846-10.214 2.538a.942.942 0 01-1.247-.36.903.903 0 01.367-1.224C8.844.936 12.585 0 16.527 0c3.906 0 7.317.846 11.058 2.736a.874.874 0 01.385 1.206.9.9 0 01-.807.504zm-26.24 9.45a.968.968 0 01-.532-.162.887.887 0 01-.22-1.26 18.858 18.858 0 016.876-5.886c5.758-2.916 13.13-2.934 18.906-.018a18.934 18.934 0 016.876 5.85.89.89 0 01-.22 1.26.925.925 0 01-1.284-.216 17.126 17.126 0 00-6.216-5.292c-5.263-2.646-11.992-2.646-17.237.018-2.493 1.26-4.584 3.06-6.234 5.328-.147.252-.422.378-.715.378zm11.46 21.726a.868.868 0 01-.641-.27c-1.596-1.566-2.458-2.574-3.686-4.752-1.265-2.214-1.926-4.914-1.926-7.812 0-5.346 4.658-9.702 10.38-9.702 5.72 0 10.378 4.356 10.378 9.702a.9.9 0 01-.917.9.9.9 0 01-.917-.9c0-4.356-3.832-7.902-8.545-7.902s-8.545 3.546-8.545 7.902c0 2.592.587 4.986 1.705 6.93 1.174 2.07 1.98 2.952 3.393 4.356a.912.912 0 010 1.278c-.202.18-.44.27-.679.27zm13.148-3.33c-2.182 0-4.107-.54-5.684-1.602-2.733-1.818-4.365-4.77-4.365-7.902a.9.9 0 01.917-.9.9.9 0 01.917.9c0 2.538 1.32 4.932 3.557 6.408 1.302.864 2.824 1.278 4.658 1.278.44 0 1.174-.054 1.907-.18a.913.913 0 011.064.738c.091.486-.239.954-.752 1.044a12.75 12.75 0 01-2.219.216zM21.845 36c-.073 0-.165-.018-.238-.036-2.916-.792-4.823-1.854-6.821-3.78-2.568-2.502-3.98-5.832-3.98-9.396 0-2.916 2.53-5.292 5.648-5.292 3.117 0 5.648 2.376 5.648 5.292 0 1.926 1.705 3.492 3.814 3.492s3.814-1.566 3.814-3.492c0-6.786-5.96-12.294-13.294-12.294-5.208 0-9.976 2.844-12.121 7.254-.715 1.458-1.082 3.168-1.082 5.04 0 1.404.128 3.618 1.229 6.498a.874.874 0 01-.532 1.152.915.915 0 01-1.174-.522c-.898-2.358-1.338-4.698-1.338-7.128 0-2.16.421-4.122 1.247-5.832 2.439-5.022 7.848-8.28 13.77-8.28 8.344 0 15.129 6.318 15.129 14.094 0 2.916-2.53 5.292-5.648 5.292-3.117 0-5.648-2.376-5.648-5.292 0-1.926-1.705-3.492-3.814-3.492s-3.814 1.566-3.814 3.492c0 3.078 1.21 5.958 3.43 8.118 1.741 1.692 3.41 2.628 5.995 3.33.495.126.77.63.642 1.098a.891.891 0 01-.862.684z" fill="#86D141"/></svg>