<svg width="47" height="36" fill="none" xmlns="http://www.w3.org/2000/svg"><path d="M43.707 10.061l-.96-.015-.372-.592c-.254-.404-.393-.832-.393-1.097 0-.928.768-1.714 1.76-1.714.99 0 1.758.786 1.758 1.714 0 .896-.718 1.662-1.66 1.712a1.58 1.58 0 00-.133-.008zm-1.673 1.369l.174-.138-4.115 22.326s0 0 0 0a1.099 1.099 0 01-1.09.882H10.07c-.551 0-.999-.387-1.09-.882h0L4.89 11.425l.003.003 7.302 5.761s0 0 0 0c2.032 1.604 5.052.962 6.227-1.357 0 0 0 0 0 0l4.693-9.257.348-.687.349.687 4.692 9.258h0c1.176 2.318 4.197 2.96 6.228 1.357 0 0 0 0 0 0l7.302-5.761zM4.629 9.343l-.55.72H3.39c-.064 0-.12.005-.158.008-.978-.014-1.732-.795-1.732-1.714 0-.906.82-1.714 1.759-1.714.94 0 1.759.808 1.759 1.714 0 .306-.118.629-.39.986zM24.365 4.62l-.902.554-.9-.554c-.554-.34-.858-.858-.858-1.406 0-.885.796-1.714 1.832-1.714.946 0 1.685.742 1.685 1.714 0 .55-.303 1.066-.857 1.406z" stroke="#86D141" stroke-width="3"/></svg>