<svg width="39" height="39" fill="none" xmlns="http://www.w3.org/2000/svg"><path d="M32.641 14.917l-.583 1.182 1.097.73 3.95 2.633-3.951 2.638-1.096.731.584 1.181 2.104 4.257-4.74.307-1.316.085-.085 1.315-.305 4.74-4.259-2.104-1.18-.584-.732 1.096-2.636 3.951-2.636-3.95-.731-1.097-1.181.584-4.26 2.104-.304-4.742-.085-1.316-1.316-.084-4.738-.305 2.105-4.257.584-1.181-1.097-.732-3.953-2.636 3.951-2.636 1.096-.73-.583-1.182-2.105-4.259 4.742-.305 1.316-.085.085-1.316.305-4.74 4.256 2.107 1.182.584.731-1.097 2.636-3.952 2.636 3.952.731 1.097 1.182-.584L28.3 4.21l.307 4.74.085 1.315 1.315.085 4.74.307-2.105 4.26z" stroke="#86D141" stroke-width="3"/></svg>