<svg width="484" height="367" fill="none" xmlns="http://www.w3.org/2000/svg"><path d="M457 398l-82.5-46h-103L244 269.5 150 230l-92.5-74-57 169" stroke="#323232" stroke-width="2"/><path d="M483 375L369.934 242.594l-70.254 46.15-48.849-120.319-67.511 15.383-27.992-23.624L91.111 8 70.254 48.656l-19.759 66.477-17.563-42.304L0 175.567" stroke="#393939" stroke-width="2"/><circle cx="7" cy="7" r="7" transform="matrix(-1 0 0 1 98 0)" fill="#86D141"/><circle cx="7" cy="7" r="7" transform="matrix(-1 0 0 1 40 65)" fill="#86D141"/><circle cx="7" cy="7" r="7" transform="matrix(-1 0 0 1 308 280)" fill="#86D141"/></svg>