<svg width="33" height="28" fill="none" xmlns="http://www.w3.org/2000/svg"><path d="M29.63 27.104c-.45.224-.9.448-1.349.597-.075 0-.15.075-.225.075-.224.075-.374.075-.599.15h-.15c-.224 0-.45.074-.749.074h-5.094l-1.947-2.016h7.041c1.049 0 2.098-.448 2.772-1.27.749-.82 1.048-1.791.899-2.911l-.525-4.48c-.224-1.867-1.797-3.286-3.745-3.286H6.783c-1.872 0-3.52 1.419-3.745 3.286l-.524 4.48c-.15 1.045.225 2.09.899 2.912.749.821 1.723 1.269 2.771 1.269h7.041l-1.872 1.941H6.259c-.225 0-.45 0-.749-.074-.225 0-.45-.075-.674-.15-2.996-.672-5.169-3.509-4.794-6.72l.375-3.36.15-1.12c0-.224.074-.373.074-.597.15-.597.3-1.12.6-1.643.3-.448.599-.896 1.048-1.344.075-.149.225-.224.375-.298.075-.075.224-.15.3-.224.074-.075.15-.15.299-.224a9.62 9.62 0 011.498-.822c.3-.074.6-.224.974-.224.374-.074.749-.074 1.198-.074h5.993v.373c0 .523.449.896.973.896h5.394c.524 0 .898-.373.973-.896v-.373h5.918c.898 0 1.723.224 2.546.522l.9.448c.074.075.224.15.299.224.15.075.225.15.3.299.074.075.15.075.224.15.15.074.225.223.375.373l.15.149c.074.075.074.15.15.15.074.149.224.223.299.373.3.448.524.821.674 1.344.15.448.3.97.375 1.493l.45 3.957.074.448v.075c0 2.539-1.348 4.853-3.37 6.048zM6.26 24.117c-.525 0-1.05-.224-1.35-.597-.374-.373-.524-.896-.449-1.419l.525-4.48c.075-.97.824-1.642 1.797-1.642h19.25c.975 0 1.724.672 1.799 1.642l.524 4.48c.075.523-.075 1.046-.45 1.419-.374.373-.823.597-1.348.597H6.26zm6.216-20.309l-.075-1.27C8.956 3.212 6.26 5.75 5.211 8.96c.524-.075 1.048-.15 1.647-.15h1.573c.674-2.314 2.098-4.106 4.045-5.002zm8.015-1.344l-.075 1.195c2.097.821 3.67 2.688 4.494 5.152h1.124c.749 0 1.423.074 2.097.298-1.123-3.434-4.045-6.048-7.64-6.645zM14.124 0h4.57l-.076 1.717-.075.598-.224 6.496-.075 1.568h-3.596l-.075-1.195L14.124 0z" fill="#86D141"/></svg>