<svg width="40" height="36" fill="none" xmlns="http://www.w3.org/2000/svg"><path fill-rule="evenodd" clip-rule="evenodd" d="M12.8 0c-.186 0-.37.044-.537.13L6.686 2.982a1.19 1.19 0 00-.477.417L.222 12.38a1.228 1.228 0 00-.22.774 1.243 1.243 0 00.317.772L19.096 35.58A1.2 1.2 0 0020 36a1.173 1.173 0 00.828-.34 1.19 1.19 0 00.076-.08l18.775-21.653a1.233 1.233 0 00.304-.628 1.246 1.246 0 00-.074-.676l-.005-.013-.005-.01a1.217 1.217 0 00-.12-.22L33.79 3.4a1.202 1.202 0 00-.477-.418L27.736.13A1.178 1.178 0 0027.2 0H12.8zM3.005 12.562l7.247 3.261 1.229-8.17L7.6 5.667l-4.596 6.894zm29.394-6.894l4.596 6.894-7.247 3.261-1.23-8.17 3.88-1.985zM26.17 8.182H13.83l-1.231 8.182H27.4l-1.23-8.182zM9.883 4.09l3.2-1.636h13.833l3.2 1.636-3.2 1.636H13.083l-3.2-1.636zm24.38 12.382l-8.64 9.964 4.045-7.896 4.595-2.068zm-21.08 2.345h13.634L20 32.128l-6.817-13.31zm-7.446-2.345l4.595 2.068 4.044 7.896-8.64-9.964z" fill="#86D141"/></svg>