<svg width="33" height="33" fill="none" xmlns="http://www.w3.org/2000/svg"><path d="M25.387 13.961c-.446.111-.668.668-.446 1.113.557 1.336.78 2.784.78 4.231 0 6.68-5.456 12.025-12.026 12.025-6.569 0-12.025-5.344-12.025-12.025 0-6.68 5.345-12.024 12.025-12.024 1.225 0 2.561.222 3.786.556.446.112.891-.11 1.002-.556.112-.446-.111-.891-.556-1.002a13.46 13.46 0 00-4.232-.668C6.124 5.61 0 11.734 0 19.305 0 26.876 6.124 33 13.695 33c7.572 0 13.696-6.124 13.696-13.695 0-1.67-.334-3.34-.89-4.899-.112-.334-.669-.556-1.114-.445zm-11.692 2.56c.446 0 .891-.333.891-.89 0-.557-.334-.89-.89-.89a4.467 4.467 0 00-4.454 4.453 4.467 4.467 0 004.453 4.454 4.467 4.467 0 004.454-4.454c0-.445-.334-.89-.89-.89-.557 0-.78.556-.78 1.001a2.756 2.756 0 01-2.784 2.784 2.756 2.756 0 01-2.783-2.784 2.757 2.757 0 012.783-2.783zm4.12-4.341c.223-.446 0-.891-.445-1.114-1.114-.557-2.45-.78-3.675-.78-5.01 0-9.13 4.01-9.13 9.02s4.12 9.13 9.13 9.13c5.011 0 9.13-4.12 9.13-9.13 0-1.337-.222-2.562-.779-3.675-.222-.445-.668-.668-1.113-.445-.445.223-.557.668-.445 1.113.445 1.002.668 2.004.668 3.006a7.46 7.46 0 11-7.46-7.46c1.113 0 2.115.223 3.006.669.445.222.89 0 1.113-.334zm15.143-5.567c-.111-.334-.334-.557-.668-.557l-4.565-.78-.78-4.564c0-.334-.222-.557-.556-.668a.866.866 0 00-.89.222l-5.457 5.456c-.223.223-.334.445-.223.78l.891 4.676-7.015 7.014h-.11c-.669 0-1.226.557-1.226 1.225s.557 1.224 1.225 1.224 1.225-.556 1.225-1.224l7.126-7.126 4.565.89h.112a.851.851 0 00.556-.222l5.456-5.456c.334-.222.446-.556.334-.89zM21.601 6.5l4.008-4.008.557 3.118-3.897 3.896-.668-3.006zm4.9 4.9l-3.007-.557 3.897-3.897 3.006.556L26.5 11.4z" fill="#86D141"/></svg>