<svg width="1356" height="659" fill="none" xmlns="http://www.w3.org/2000/svg"><path d="M4.01 597.148l211.281-217.683a21.59 21.59 0 01-2.861-10.774c0-11.978 9.711-21.689 21.689-21.689s21.689 9.711 21.689 21.689c0 2.665-.482 5.216-1.361 7.575l141.218 107.71a21.584 21.584 0 0111.03-3.013c1.662 0 3.28.188 4.834.542L516.896 330.64a21.582 21.582 0 01-3.501-11.817c0-11.978 9.711-21.689 21.689-21.689 10.371 0 19.041 7.281 21.181 17.01l57.64 9.8c3.826-6.167 10.654-10.275 18.444-10.275 2.722 0 5.327.503 7.727 1.419L771.22 174.289a21.606 21.606 0 01-2.019-9.144c0-11.978 9.711-21.689 21.689-21.689s21.689 9.711 21.689 21.689c0 5.35-1.938 10.246-5.15 14.028L918.142 390.61a21.631 21.631 0 018.717.924L1235.63 21.507l-24.78-17.166 25.18-2.17L1261.21 0l6.82 24.335 6.82 24.335-25.74-17.827-309.715 371.154a21.58 21.58 0 012.545 10.199c0 11.978-9.711 21.689-21.689 21.689s-21.689-9.711-21.689-21.689c0-5.35 1.939-10.246 5.15-14.027L792.998 186.731c-.694.067-1.397.102-2.108.102a21.61 21.61 0 01-7.728-1.419L652.019 326.213a21.606 21.606 0 012.018 9.145c0 11.978-9.71 21.689-21.688 21.689-10.372 0-19.042-7.281-21.181-17.011l-57.641-9.799c-3.824 6.167-10.654 10.274-18.443 10.274a21.76 21.76 0 01-4.835-.541L424.883 490.835a21.562 21.562 0 013.446 10.274l89.023-102.238a21.59 21.59 0 01-2.329-9.785c0-11.978 9.711-21.689 21.689-21.689 10.822 0 19.793 7.928 21.423 18.292l55.323 12.866c3.901-5.745 10.487-9.521 17.955-9.521 4.017 0 7.777 1.093 11.003 2.996l135.602-120.943a21.635 21.635 0 01-1.253-7.279c0-11.978 9.711-21.689 21.689-21.689s21.688 9.711 21.688 21.689c0 6.453-2.819 12.247-7.292 16.22l26.629 75.284a21.61 21.61 0 0114.203-5.298c4.257 0 8.227 1.229 11.577 3.347l1.573-1.127.834 2.892c4.712 3.978 7.704 9.929 7.704 16.577 0 2.303-.36 4.522-1.025 6.605l32.379 112.374L1236.42 159.94l-22.63-21.195 25.23 1.537 25.22 1.536 3.19 25.07 3.18 25.07-23.37-21.89 1.06 1.058-336.412 337.478 28.64 99.398a21.52 21.52 0 018.219 2.578l376.033-304.255-19.18-24.028 24.74 5.151 24.74 5.15-.46 25.268-.45 25.268-19.18-24.027-375.954 304.186c.601 1.988.925 4.097.925 6.281 0 11.978-9.711 21.689-21.688 21.689-11.978 0-21.689-9.711-21.689-21.689 0-6.925 3.245-13.093 8.3-17.064l-21.882-75.944a21.603 21.603 0 01-13.946 5.08c-11.978 0-21.689-9.711-21.689-21.689 0-6.453 2.82-12.247 7.293-16.22l-38.667-109.315-141.72 101.469c.387 1.62.592 3.311.592 5.05 0 11.978-9.711 21.689-21.689 21.689-11.418 0-20.775-8.824-21.626-20.024l-54.033-17.192c-3.978 4.786-9.975 7.833-16.685 7.833a21.596 21.596 0 01-13.894-5.036l-131.93 124.551a21.635 21.635 0 011.471 7.865c0 11.978-9.711 21.689-21.689 21.689s-21.688-9.711-21.688-21.689c0-3.433.799-6.679 2.219-9.564L281.176 483.331a21.663 21.663 0 01-7.323 1.269 21.578 21.578 0 01-11.629-3.379l-248.74 177.37-9.457-13.29 248.724-177.36a21.776 21.776 0 01-.587-5.03c0-10.946 8.11-19.997 18.649-21.475l-16.051-16.173a21.682 21.682 0 01-4.168.402c-4.432 0-8.551-1.33-11.985-3.611L10.799 623.373 0 611.169l9.654-8.532-5.644-5.489zm886.043-98.856c.666.03 1.323.091 1.973.18l-30.679-106.475a21.65 21.65 0 01-8.403 1.381l37.109 104.914zm-216.877-19.04c4.257 0 8.227 1.229 11.577 3.347l145.565-104.222-32.861-92.904a21.56 21.56 0 01-8.562-2.192l-136.542 121.78c.487 1.806.749 3.703.749 5.662 0 11.978-9.711 21.689-21.689 21.689-10.682 0-19.561-7.723-21.357-17.89l-55.619-12.935c-3.928 5.559-10.402 9.188-17.725 9.188-2.461 0-4.825-.41-7.03-1.166L412.898 543.728a21.606 21.606 0 012.328 9.785c0 11.978-9.71 21.689-21.688 21.689a21.58 21.58 0 01-11.193-3.108l25.122 28.113a21.643 21.643 0 017.323-1.269c3.217 0 6.27.701 9.015 1.958l135.393-127.82a21.795 21.795 0 01-.054-1.518c0-11.978 9.71-21.688 21.688-21.688 11.418 0 20.776 8.824 21.626 20.024l54.032 17.192c3.979-4.785 9.976-7.834 16.686-7.834zm-279.638 52.573c2.461 0 4.825.41 7.03 1.165l7.574-8.698c-.479.031-.96.049-1.447.049-11.978 0-21.689-9.711-21.689-21.689 0-1.973.265-3.885.759-5.701l-114.273-87.157a21.586 21.586 0 01-2.885 6.264L385.165 533.5a21.637 21.637 0 018.373-1.675zm-19.721 30.726a21.621 21.621 0 01-1.968-9.038c0-3.026.621-5.907 1.74-8.524l-78.284-78.876a21.548 21.548 0 01-1.982 6.361l80.494 90.077zM233.7 390.376a21.642 21.642 0 01-5.482-.809L92.309 529.593l137.063-121.124a21.734 21.734 0 01-.467-4.493 21.6 21.6 0 014.795-13.6z" fill="url(#paint0_linear_3775_18856)"/><defs><linearGradient id="paint0_linear_3775_18856" x1="113.5" y1="340.288" x2="1363" y2="300.788" gradientUnits="userSpaceOnUse"><stop stop-color="#1F1F1F"/><stop offset="1" stop-color="#373435"/></linearGradient></defs></svg>