<svg width="62" height="61" fill="none" xmlns="http://www.w3.org/2000/svg"><path d="M39.732 52.391c8.007 0 14.498-6.491 14.498-14.498s-6.49-14.498-14.498-14.498c-8.007 0-14.498 6.49-14.498 14.498 0 8.007 6.491 14.498 14.498 14.498z" stroke="#7DC23E" stroke-width="2" stroke-miterlimit="10"/><path d="M49.722 48.512l10.514 10.514M28.048 52.69a25.845 25.845 0 1125.844-25.845" stroke="#7DC23E" stroke-width="2" stroke-linecap="round" stroke-linejoin="round"/><path d="M28.048 1v21.905" stroke="#7DC23E" stroke-width="2" stroke-miterlimit="10" stroke-linecap="round"/><path d="M22.046 39.98a52.335 52.335 0 00-14.342 2.772" stroke="#7DC23E" stroke-width="2" stroke-linecap="round" stroke-linejoin="round"/><path d="M7.704 10.941c4.731 1.813 12.075 2.982 20.344 2.982 8.269 0 15.612-1.169 20.343-2.982" stroke="#7DC23E" stroke-width="2" stroke-miterlimit="10"/><path d="M42.94 19.61C41.061 8.858 35.104 1 28.047 1 19.484 1 12.54 12.571 12.54 26.845c0 14.273 6.943 25.844 15.507 25.844m-3.461-25.845H1.976" stroke="#7DC23E" stroke-width="2" stroke-linecap="round" stroke-linejoin="round"/></svg>