<svg width="50" height="58" fill="none" xmlns="http://www.w3.org/2000/svg"><path d="M25.002 57.956a3.126 3.126 0 01-2.215-.906L7.895 42.157A24.934 24.934 0 01.544 24.298 24.137 24.137 0 017.732 7.037a24.712 24.712 0 0134.54 0 24.136 24.136 0 017.189 17.261 24.934 24.934 0 01-7.352 17.86L27.217 57.022a3.124 3.124 0 01-2.215.933zm0-55.258A21.827 21.827 0 009.64 8.97a21.443 21.443 0 00-6.38 15.333 22.24 22.24 0 006.554 15.93l14.888 14.865a.411.411 0 00.594 0l14.892-14.866a22.24 22.24 0 006.554-15.93 21.442 21.442 0 00-6.377-15.331 21.827 21.827 0 00-15.364-6.273z" fill="#86D141"/><path d="M25.002 36.853a12.342 12.342 0 11.011-24.684 12.342 12.342 0 01-.01 24.684zm0-21.963a9.63 9.63 0 10.03 19.26 9.63 9.63 0 00-.03-19.26z" fill="#86D141"/></svg>