<svg width="58" height="58" fill="none" xmlns="http://www.w3.org/2000/svg"><path d="M29 58a29 29 0 110-58 29 29 0 010 58zm0-53.538a24.538 24.538 0 100 49.076 24.538 24.538 0 000-49.076z" fill="#86D141"/><path d="M29 31.23a11.154 11.154 0 110-22.308 11.154 11.154 0 010 22.308zm0-17.847a6.692 6.692 0 100 13.384 6.692 6.692 0 000-13.384zm21.304 33.463a2.23 2.23 0 01-1.65-.714 25.319 25.319 0 00-18.628-8.21h-2.052a25.14 25.14 0 00-17.511 7.05 2.23 2.23 0 01-3.079-3.212 29.535 29.535 0 0120.59-8.299h2.052a29.87 29.87 0 0121.907 9.637 2.231 2.231 0 01-1.629 3.748z" fill="#86D141"/></svg>