<svg width="89" height="66" fill="none" xmlns="http://www.w3.org/2000/svg"><path fill-rule="evenodd" clip-rule="evenodd" d="M20.026 1.452a4.966 4.966 0 010 7.01c-13.516 13.552-13.516 35.523 0 49.074a4.966 4.966 0 010 7.01 4.936 4.936 0 01-6.992 0c-17.379-17.422-17.379-45.67 0-63.094a4.935 4.935 0 016.992 0zm48.948.001a4.935 4.935 0 016.992 0c17.379 17.423 17.379 45.672 0 63.095a4.935 4.935 0 01-6.992 0 4.966 4.966 0 010-7.01c13.516-13.552 13.516-35.523 0-49.074a4.966 4.966 0 010-7.01zM34.01 15.473a4.966 4.966 0 010 7.01c-5.793 5.808-5.793 15.225 0 21.032a4.966 4.966 0 010 7.01 4.936 4.936 0 01-6.992 0c-9.655-9.679-9.655-25.372 0-35.052a4.935 4.935 0 016.992 0zm20.978.001a4.935 4.935 0 016.992 0c9.655 9.68 9.655 25.373 0 35.053a4.936 4.936 0 01-6.992 0 4.966 4.966 0 010-7.01c5.793-5.809 5.793-15.225 0-21.032a4.966 4.966 0 010-7.01zm-10.49 12.57A4.95 4.95 0 0149.445 33v.05a4.95 4.95 0 01-4.944 4.956 4.95 4.95 0 01-4.944-4.957V33a4.95 4.95 0 014.944-4.957z" fill="#fff"/></svg>