<svg width="72" height="66" fill="none" xmlns="http://www.w3.org/2000/svg"><path d="M2.75 66a2.341 2.341 0 01-1.045-.22A2.75 2.75 0 010 63.25V13.147A13.447 13.447 0 0113.75.003h43.996a13.447 13.447 0 0113.75 13.145v25.958a13.447 13.447 0 01-13.75 13.144h-40.12L4.702 65.202a2.75 2.75 0 01-1.952.797zm11-60.497a7.974 7.974 0 00-8.25 7.645v43.474l9.047-9.074a2.749 2.749 0 011.952-.797h41.247a7.975 7.975 0 008.25-7.645V13.148a7.975 7.975 0 00-8.25-7.645H13.75z" fill="#fff"/><path d="M35.748 30.253a4.125 4.125 0 100-8.25 4.125 4.125 0 000 8.25zm15.122 0a4.125 4.125 0 100-8.25 4.125 4.125 0 000 8.25zm-30.247 0a4.125 4.125 0 100-8.25 4.125 4.125 0 000 8.25z" fill="#fff"/></svg>