<svg width="66" height="66" fill="none" xmlns="http://www.w3.org/2000/svg"><path d="M27.101 0a1.178 1.178 0 00-1.164 1.003l-1.11 7.475a25.89 25.89 0 00-3.392 1.404L15.37 5.381a1.178 1.178 0 00-1.537.115L5.495 13.83a1.178 1.178 0 00-.115 1.533l4.497 6.062a25.9 25.9 0 00-1.404 3.402l-7.466 1.104A1.179 1.179 0 000 27.102v11.783a1.178 1.178 0 001.003 1.164l7.48 1.11a25.891 25.891 0 001.404 3.387L5.38 50.617a1.178 1.178 0 00.115 1.538l8.335 8.335a1.178 1.178 0 001.538.11l6.057-4.492a25.938 25.938 0 003.406 1.404l1.096 7.401v.01l.009.055a1.178 1.178 0 001.344 1.008h11.424a1.18 1.18 0 001.358-1.1l1.095-7.383a25.888 25.888 0 003.393-1.404l6.066 4.502a1.178 1.178 0 001.538-.115l8.335-8.336a1.179 1.179 0 00.115-1.533l-4.497-6.066c.549-1.1 1.017-2.23 1.404-3.397l7.466-1.11a1.179 1.179 0 001.008-1.16V27.102a1.179 1.179 0 00-1.003-1.169l-7.48-1.109a25.894 25.894 0 00-1.404-3.388l4.506-6.07a1.179 1.179 0 00-.115-1.534l-8.336-8.335a1.178 1.178 0 00-1.537-.12L44.56 9.868a25.928 25.928 0 00-3.406-1.403L40.049.999A1.179 1.179 0 0038.885 0H27.1zm1.018 2.357h9.748l1.054 7.111a1.178 1.178 0 00.829.957 23.57 23.57 0 014.428 1.828 1.179 1.179 0 001.261-.092l5.767-4.281 6.9 6.895-4.294 5.786a1.18 1.18 0 00-.088 1.261 23.566 23.566 0 011.827 4.41 1.179 1.179 0 00.953.828l7.125 1.054v9.753l-7.111 1.05a1.178 1.178 0 00-.957.828 23.562 23.562 0 01-1.828 4.428 1.179 1.179 0 00.088 1.261l4.285 5.772-6.9 6.895-5.78-4.29a1.178 1.178 0 00-1.262-.092 23.574 23.574 0 01-4.101 1.717V45.218c4.22-2.45 7.07-7.006 7.07-12.225a14.142 14.142 0 00-7.715-12.575 1.178 1.178 0 00-1.712 1.045v10.863l-4.713 2.826-4.713-2.826V21.449a1.177 1.177 0 00-1.713-1.05 14.147 14.147 0 00-7.714 12.594c0 5.22 2.85 9.775 7.07 12.225v10.227a23.547 23.547 0 01-4.115-1.716 1.179 1.179 0 00-1.261.092L14.78 58.1l-6.9-6.895 4.295-5.785a1.18 1.18 0 00.087-1.262 23.566 23.566 0 01-1.827-4.41 1.179 1.179 0 00-.953-.828l-7.125-1.054V28.12l7.111-1.054a1.178 1.178 0 00.957-.829 23.562 23.562 0 011.828-4.428 1.179 1.179 0 00-.088-1.261L7.88 14.775l6.9-6.895 5.78 4.29a1.179 1.179 0 001.262.092 23.634 23.634 0 014.414-1.832 1.178 1.178 0 00.824-.953l1.059-7.12zm-2.196 21.725v8.911a1.179 1.179 0 00.57 1.008l5.892 3.535a1.178 1.178 0 001.216 0l5.891-3.535a1.178 1.178 0 00.57-1.008v-8.897c2.76 2.206 4.71 5.28 4.714 8.897a11.765 11.765 0 01-11.783 11.783A11.765 11.765 0 0121.21 32.993c0-3.622 1.952-6.702 4.713-8.911zm2.357 22.222c1.477.526 3.058.829 4.713.829 1.655 0 3.236-.303 4.713-.829V63.63H28.28V46.304z" fill="#fff"/></svg>