<svg width="65" height="66" fill="none" xmlns="http://www.w3.org/2000/svg"><path d="M50.934 0c3.67.002 7.294-.005 10.916.008.97.004 1.822.308 2.471 1.09.413.499.584 1.058.584 1.69-.002 9.276-.006 18.552-.006 27.828.001 10.831.002 21.66.011 32.491.001 1.118-.427 1.97-1.447 2.447-.366.17-.8.276-1.205.276-6.874.01-13.746-.005-20.62-.006-6.452-.003-12.903.007-19.356.006-5.773-.001-11.547-.009-17.32-.02-.904-.002-1.81.001-2.711-.057-1.1-.07-2.184-1.138-2.184-2.313-.003-2.865-.014-5.73-.014-8.595.001-11.17.014-22.34.007-33.51C.057 15.346.028 9.357 0 3.367-.006 1.995.36.826 1.733.267 2.21.073 2.767.012 3.288.012 19.155-.001 35.02.002 50.933 0zM26.68 38.503c.254-.085.507-.243.761-.245 2.377-.014 4.753-.006 7.13.01.672.005 1.163.434 1.24 1.11.067.576.062 1.161.07 1.742.01.721.002 1.442.002 2.142h5.651c0-2.49-.002-4.932.002-7.373.001-1.004.515-1.508 1.513-1.509 2.474-.004 4.948-.009 7.423-.007.222 0 .456.01.662.08.673.227.888.623.888 1.625.002 8.32 0 16.642-.001 24.962v2.467h10.626V11.845H2.339v51.654h3.076v-.555c.002-2.493.005-4.986.004-7.479-.001-2.444-.01-4.89-.009-7.333 0-.61.26-.923.8-.926 2.619-.008 5.239-.012 7.858.004.751.005 1.314.575 1.313 1.262l-.035 14.665c0 .125.017.248.025.362h3.44v-.467c0-3.335.002-6.67 0-10.005 0-.806.25-1.072 1.063-1.073 1.94-.004 3.882.002 5.823.005h.59v-.504c-.003-3.95-.005-7.9-.011-11.85-.002-.395-.018-.784.404-1.102zM59.716 9.52h2.927V2.264H2.34v7.255h57.377zM43.7 46.943v16.536h6.03V36.634h-6.028c0 3.435 0 6.829-.002 10.309zm-10.117.99v-7.589H28.46V63.49h5.123V47.932zM7.663 61.335v2.154h5.412V49.372H7.663c.002 3.98.002 7.923 0 11.964zm28.212-11.364v4.571h5.613v-9.06h-5.613v4.489zm-9.612 9.033v-5.007h-5.188v9.5h5.187l.001-4.493zm11.424-2.187H35.9v6.67h5.59v-6.67h-3.803z" fill="#fff"/><path d="M14.732 33.504c1.386-3 6.452-3.451 8.648.118l9.753-5.778c-.186-1.535-.08-3.048 1.038-4.312.854-.965 1.92-1.556 3.208-1.672 2.346-.214 5.413 1.503 5.325 5.171 1.452.83 2.936 1.676 4.462 2.547.571-.686 1.13-1.345 1.675-2.017 1.482-1.825 2.96-3.654 4.437-5.484.769-.953 1.54-1.904 2.29-2.871.127-.163.198-.402.213-.612.057-.753.685-1.386 1.483-1.453.716-.06 1.466.483 1.602 1.19.096.505-.179.89-.483 1.257a3750.334 3750.334 0 00-5.377 6.523 587.649 587.649 0 00-3.178 3.892c-.333.412-.647.841-.95 1.274a1.8 1.8 0 01-2.458.502c-1.243-.764-2.53-1.457-3.8-2.178-.176-.1-.357-.196-.533-.291-2.02 2.97-5.768 3.104-7.758.535l-10.372 6.077c-.068 1.603-.812 2.94-2.19 3.887-.917.63-1.942.955-3.078.883-1.748-.112-4.235-1.509-4.195-4.156-1.089.687-2.147 1.344-3.194 2.018-1.483.954-2.956 1.924-4.435 2.885-.387.25-.784.446-1.261.225-.464-.214-.75-.576-.799-1.07-.046-.46.167-.846.567-1.094 1.662-1.034 3.329-2.061 4.993-3.092 1.105-.685 2.207-1.374 3.315-2.051.229-.14.486-.234.771-.367.073-.12.171-.286.28-.486zm21.308-8.643c-.73.722-.933 1.603-.69 2.571.263 1.047 1.36 1.847 2.404 1.904 1.376.074 2.394-.89 2.662-1.77.33-1.088.055-2.282-1.055-3.001-1.093-.71-2.143-.66-3.321.296zM19.755 38.25c.06-.025.118-.052.177-.076 1.59-.614 2.198-2.298 1.295-3.686-.588-.901-1.5-1.136-2.524-1.092-1.095.048-1.934.72-2.253 1.833-.264.92.22 2.096 1.037 2.662.682.47 1.425.43 2.268.359zM48.29 7.014c-.562-.596-.69-1.26-.391-1.923.26-.577.8-.889 1.532-.84.73.05 1.281.405 1.572 1.088.235.551-.02 1.248-.599 1.745-.512.441-1.173.519-1.733.199-.125-.07-.238-.162-.382-.269zm6.728-1.932c.766-1.208 2.123-.933 2.775-.097.461.592.36 1.551-.182 2.071-.566.543-1.552.557-2.164.032-.672-.577-.793-1.114-.43-2.006zM43.772 7.477c-.933-.136-1.582-.839-1.556-1.648.023-.788.72-1.514 1.495-1.56.902-.055 1.765.699 1.78 1.582.016.888-.918 1.752-1.72 1.626zM35.75 5.129c.447-.715 1.017-.989 1.658-.818.828.221 1.37.814 1.386 1.515.017.782-.759 1.627-1.516 1.65-.84.025-1.642-.688-1.668-1.519-.009-.263.074-.532.14-.828z" fill="#fff"/></svg>