<svg width="40" height="28" fill="none" xmlns="http://www.w3.org/2000/svg"><path d="M36.055 4.208a.905.905 0 00-1.267-.185L20.187 14.937a.302.302 0 01-.362 0L5.51 3.975A.905.905 0 004.179 5.15c.06.103.14.193.234.265l11.254 8.62-11.13 8.4a.912.912 0 001.089 1.462l11.535-8.72 1.563 1.21a2.11 2.11 0 002.543.017l1.642-1.227 11.67 8.72a.904.904 0 001.438-.857.908.908 0 00-.355-.596L24.42 14.033l11.45-8.565a.907.907 0 00.185-1.26z" fill="#fff"/><path d="M34.929.332H5.359c-1.2 0-2.35.478-3.2 1.327A4.535 4.535 0 00.835 4.864v18.129c0 1.202.477 2.355 1.326 3.205.848.85 2 1.327 3.2 1.327H34.93a4.52 4.52 0 003.2-1.327 4.535 4.535 0 001.326-3.205V4.864a4.535 4.535 0 00-1.326-3.205 4.52 4.52 0 00-3.2-1.327zm2.716 22.661a2.721 2.721 0 01-2.716 2.72H5.359a2.714 2.714 0 01-2.715-2.72V4.864a2.721 2.721 0 012.716-2.72h29.569a2.713 2.713 0 012.716 2.72v18.129z" fill="#fff"/></svg>