<svg width="1440" height="953" fill="none" xmlns="http://www.w3.org/2000/svg"><path fill-rule="evenodd" clip-rule="evenodd" d="M2.023 208.267L-128 0v881.615h3.377V11.785L-.259 210.988l128.278 51.761 94.287 168.25 274.687-50.251 274.372 50.193 158.418-158.418 28.564-60.423 40.906 26.703 54.727-228.414 52.32 90.077 35.32 205.608 101.78-77.041 28 202.185 180.28-45.352 155.44 60.729v435.02h3.38V444.289l-158.6-61.961-177.67 44.696-28.27-204.16L1144 300.031l-34.47-200.735-56.86-97.9-55.584 231.96-40.137-26.201-29.968 63.394L770.23 427.301l-273.237-49.986-272.921 49.928-93.688-167.181-128.36-51.795z" fill="#393939"/><path fill-rule="evenodd" clip-rule="evenodd" d="M61.871 321.209L-60 126v826.34h3.165V137.046L59.732 323.759l120.235 48.516 88.376 157.701 257.465-47.1 257.169 47.046 148.486-148.486 26.772-56.634 38.342 25.029 51.303-214.094 49.04 84.43 33.09 192.717 95.41-72.211 26.24 189.508 168.98-42.508 145.69 56.922V952.34h3.17V542.433l-148.66-58.077-166.52 41.895-26.51-191.36-95.56 72.329-32.31-188.15-53.3-91.761-52.094 217.416-37.621-24.558-28.089 59.419L781.913 526.51l-256.105-46.852-255.81 46.798-87.814-156.699-120.313-48.548z" fill="#393939"/></svg>