<svg width="1739" height="940" fill="none" xmlns="http://www.w3.org/2000/svg"><path d="M351.188 433.121L257.2 265.405l-128.319-51.778L1.687 9.893v929.751H1736.81V449.442l-157.02-61.345-178.97 45.024-28.14-203.172-101.87 77.104-34.89-203.172-54.6-93.988-55.15 230.186-40.52-26.452-29.27 61.909-157.584 157.585-273.804-50.09-273.804 50.09z" fill="url(#paint0_linear_3775_18590)"/><path fill-rule="evenodd" clip-rule="evenodd" d="M130.023 212.267L0 4v881.615h3.377V15.785L127.74 214.988l128.278 51.761 94.287 168.25 274.687-50.251 274.372 50.193 158.415-158.418 28.57-60.423 40.9 26.703 54.73-228.414 52.32 90.077 35.32 205.608 101.78-77.041 28 202.185 180.28-45.352 155.44 60.729v435.02h3.38V448.289l-158.6-61.961-177.67 44.696-28.27-204.16L1272 304.031l-34.47-200.735-56.86-97.9-55.58 231.96-40.14-26.201-29.97 63.394-156.75 156.752-273.237-49.986-272.921 49.928-93.688-167.181-128.361-51.795z" fill="url(#paint1_linear_3775_18590)"/><path d="M1181.32 12.145v703.504" stroke="#646464" stroke-dasharray="14 14"/><path d="M1056.38 275.535v440.112M898.797 431.996v283.653M351.752 431.996v283.653m-94.551-446.866v446.866M1270.25 307.053v411.972" stroke="#474747" stroke-dasharray="14 14"/><path d="M1372.68 231.637v487.388" stroke="url(#paint2_linear_3775_18590)" stroke-dasharray="14 14"/><path d="M1579.79 388.096v327.551" stroke="#474747" stroke-dasharray="14 14"/><circle cx="1181" cy="10" r="10" fill="#86D141"/><circle cx="1270" cy="302" r="10" fill="#86D141"/><circle cx="1373" cy="232" r="10" fill="#86D141"/><circle cx="627" cy="378" r="10" fill="#86D141"/><defs><linearGradient id="paint0_linear_3775_18590" x1="1190.33" y1="939.644" x2="1186.39" y2="9.893" gradientUnits="userSpaceOnUse"><stop stop-color="#1F1F1F"/><stop offset=".473" stop-color="#282828"/><stop offset="1" stop-color="#2E2E2E"/></linearGradient><linearGradient id="paint1_linear_3775_18590" x1="1.688" y1="717.9" x2="1737.37" y2="701.578" gradientUnits="userSpaceOnUse"><stop stop-color="#1F1F1F"/><stop offset=".515" stop-color="#525252"/><stop offset="1" stop-color="#1F1F1F"/></linearGradient><linearGradient id="paint2_linear_3775_18590" x1="1373.18" y1="231.637" x2="1373.18" y2="719.025" gradientUnits="userSpaceOnUse"><stop stop-color="#474747"/><stop offset="1" stop-color="#222"/></linearGradient></defs></svg>