<svg width="1150" height="249" fill="none" xmlns="http://www.w3.org/2000/svg"><path d="M111.088 77.48H2v131.444h1146v-66.3l-92.9-18.503-24.67-38.932-23.13-30.067-17.728-15.419-4.625-31.223-52.81 115.641-29.295-52.424-26.983 29.296L835.77 77.48V42.401l-62.446 58.591-130.289 41.631-118.724-12.335-121.808 12.335-105.234-57.435-85.574 21.972-35.463 35.463-65.144-65.144z" fill="url(#paint0_linear_3775_19798)" stroke="url(#paint1_linear_3775_19798)" stroke-width="3" stroke-linecap="round"/><path d="M904.383 74.01v173.46" stroke="url(#paint2_linear_3775_19798)" stroke-width="2" stroke-linecap="square" stroke-dasharray="8 8"/><path d="M983.791 11.565v235.907" stroke="url(#paint3_linear_3775_19798)" stroke-width="2" stroke-linecap="square" stroke-dasharray="8 8"/><path d="M832.686 50.111v197.361" stroke="url(#paint4_linear_3775_19798)" stroke-width="2" stroke-linecap="square" stroke-dasharray="8 8"/><path d="M294.57 94.055V247.47" stroke="url(#paint5_linear_3775_19798)" stroke-width="2" stroke-linecap="square" stroke-dasharray="8 8"/><path d="M178.16 144.166v103.306" stroke="url(#paint6_linear_3775_19798)" stroke-width="2" stroke-linecap="square" stroke-dasharray="8 8"/><circle cx="832.3" cy="45.101" r="8.095" fill="#86D141"/><circle cx="903.997" cy="73.624" r="8.095" fill="#86D141"/><circle cx="983.405" cy="8.095" r="8.095" fill="#86D141"/><circle cx="294.187" cy="85.96" r="8.095" fill="#86D141"/><circle cx="177.775" cy="143.78" r="8.095" fill="#86D141"/><defs><linearGradient id="paint0_linear_3775_19798" x1="575.193" y1="208.924" x2="575.193" y2="8.48" gradientUnits="userSpaceOnUse"><stop stop-color="#1F1F1F"/><stop offset="1" stop-color="#2D2D2D"/></linearGradient><linearGradient id="paint1_linear_3775_19798" x1="575.193" y1="208.924" x2="575.193" y2="8.48" gradientUnits="userSpaceOnUse"><stop stop-color="#1F1F1F"/><stop offset="1" stop-color="#3D3D3D"/></linearGradient><linearGradient id="paint2_linear_3775_19798" x1="904.883" y1="74.01" x2="904.883" y2="247.471" gradientUnits="userSpaceOnUse"><stop stop-color="#555"/><stop offset="1" stop-color="#1F1F1F"/></linearGradient><linearGradient id="paint3_linear_3775_19798" x1="984.291" y1="11.565" x2="984.291" y2="247.472" gradientUnits="userSpaceOnUse"><stop stop-color="#555"/><stop offset="1" stop-color="#1F1F1F"/></linearGradient><linearGradient id="paint4_linear_3775_19798" x1="833.186" y1="50.111" x2="833.186" y2="247.472" gradientUnits="userSpaceOnUse"><stop stop-color="#555"/><stop offset="1" stop-color="#1F1F1F"/></linearGradient><linearGradient id="paint5_linear_3775_19798" x1="295.07" y1="94.055" x2="295.07" y2="247.471" gradientUnits="userSpaceOnUse"><stop stop-color="#555"/><stop offset="1" stop-color="#1F1F1F"/></linearGradient><linearGradient id="paint6_linear_3775_19798" x1="178.66" y1="144.166" x2="178.66" y2="247.472" gradientUnits="userSpaceOnUse"><stop stop-color="#555"/><stop offset="1" stop-color="#1F1F1F"/></linearGradient></defs></svg>