<svg width="1490" height="322" fill="none" xmlns="http://www.w3.org/2000/svg"><path d="M143.5 100.5H2V271h1486.5v-86L1368 161l-32-50.5-30-39-23-20-6-40.5-68.5 150-38-68-35 38-52-30.5V55l-81 76-169 54-154-16-158 16L385 110.5 274 139l-46 46-84.5-84.5z" fill="url(#paint0_linear_3775_21958)" stroke="url(#paint1_linear_3775_21958)" stroke-width="3" stroke-linecap="round"/><path d="M1172.5 96v225" stroke="url(#paint2_linear_3775_21958)" stroke-width="2" stroke-linecap="square" stroke-dasharray="8 8"/><path d="M1275.5 15v306" stroke="url(#paint3_linear_3775_21958)" stroke-width="2" stroke-linecap="square" stroke-dasharray="8 8"/><path d="M1079.5 65v256" stroke="url(#paint4_linear_3775_21958)" stroke-width="2" stroke-linecap="square" stroke-dasharray="8 8"/><path d="M381.5 122v199" stroke="url(#paint5_linear_3775_21958)" stroke-width="2" stroke-linecap="square" stroke-dasharray="8 8"/><path d="M230.5 187v134" stroke="url(#paint6_linear_3775_21958)" stroke-width="2" stroke-linecap="square" stroke-dasharray="8 8"/><circle cx="1079" cy="58.5" r="10.5" fill="#86D141"/><circle cx="1172" cy="95.5" r="10.5" fill="#86D141"/><circle cx="1275" cy="10.5" r="10.5" fill="#86D141"/><circle cx="381" cy="111.5" r="10.5" fill="#86D141"/><circle cx="230" cy="186.5" r="10.5" fill="#86D141"/><defs><linearGradient id="paint0_linear_3775_21958" x1="745.5" y1="271" x2="745.5" y2="11" gradientUnits="userSpaceOnUse"><stop stop-color="#1F1F1F"/><stop offset="1" stop-color="#2D2D2D"/></linearGradient><linearGradient id="paint1_linear_3775_21958" x1="745.5" y1="271" x2="745.5" y2="11" gradientUnits="userSpaceOnUse"><stop stop-color="#1F1F1F"/><stop offset="1" stop-color="#3D3D3D"/></linearGradient><linearGradient id="paint2_linear_3775_21958" x1="1173" y1="96" x2="1173" y2="321" gradientUnits="userSpaceOnUse"><stop stop-color="#555"/><stop offset="1" stop-color="#1F1F1F"/></linearGradient><linearGradient id="paint3_linear_3775_21958" x1="1276" y1="15" x2="1276" y2="321" gradientUnits="userSpaceOnUse"><stop stop-color="#555"/><stop offset="1" stop-color="#1F1F1F"/></linearGradient><linearGradient id="paint4_linear_3775_21958" x1="1080" y1="65" x2="1080" y2="321" gradientUnits="userSpaceOnUse"><stop stop-color="#555"/><stop offset="1" stop-color="#1F1F1F"/></linearGradient><linearGradient id="paint5_linear_3775_21958" x1="382" y1="122" x2="382" y2="321" gradientUnits="userSpaceOnUse"><stop stop-color="#555"/><stop offset="1" stop-color="#1F1F1F"/></linearGradient><linearGradient id="paint6_linear_3775_21958" x1="231" y1="187" x2="231" y2="321" gradientUnits="userSpaceOnUse"><stop stop-color="#555"/><stop offset="1" stop-color="#1F1F1F"/></linearGradient></defs></svg>