<svg width="40" height="46" fill="none" xmlns="http://www.w3.org/2000/svg"><path d="M20.145 45.82a2.464 2.464 0 01-1.75-.717L6.639 33.33A19.713 19.713 0 01.834 19.21 19.106 19.106 0 016.51 5.563 19.496 19.496 0 0120.145 0c5.096 0 9.99 1.997 13.634 5.563a19.085 19.085 0 015.675 13.647 19.736 19.736 0 01-5.803 14.12L21.893 45.081a2.468 2.468 0 01-1.748.738zm0-43.687a17.22 17.22 0 00-12.13 4.96 16.953 16.953 0 00-5.035 12.12 17.604 17.604 0 005.174 12.595L19.91 43.56a.325.325 0 00.468 0l11.758-11.753a17.583 17.583 0 005.174-12.593 16.973 16.973 0 00-5.035-12.122 17.22 17.22 0 00-12.13-4.96z" fill="#fff"/><path d="M20.144 29.137a9.736 9.736 0 01-6.18-2.217 9.77 9.77 0 01-2.41-12.14 9.75 9.75 0 014.863-4.415 9.731 9.731 0 0111.83 3.588 9.769 9.769 0 01-1.201 12.32 9.738 9.738 0 01-6.902 2.864zm0-17.364a7.596 7.596 0 00-4.82 1.735 7.615 7.615 0 00-1.868 9.475 7.606 7.606 0 003.798 3.44 7.592 7.592 0 009.226-2.812 7.621 7.621 0 00-3.422-11.261 7.588 7.588 0 00-2.914-.577z" fill="#fff"/></svg>