<svg width="75" height="61" fill="none" xmlns="http://www.w3.org/2000/svg"><path d="M15.64 14.54h12.076l7.477 34.468H23.116L15.641 14.54z" fill="url(#paint0_linear_3775_18633)"/><path d="M27.716 14.54H15.64l5.434 25.056 6.844-24.113-.203-.944zm-4.6 34.47h12.077l-5.347-24.643-6.944 23.656.214.987z" fill="#5F9F2E" opacity=".3"/><path d="M34.248 14.54h12.075L53.8 49.007H41.725L34.248 14.54z" fill="url(#paint1_linear_3775_18633)"/><path d="M46.323 14.54H34.248l5.436 25.056 6.845-24.113-.206-.944zm-4.598 34.47H53.8l-5.344-24.643-6.944 23.656.213.987z" fill="#85CF43" opacity=".4"/><path d="M63.34.195l-12.31 8.88h3.59L41.786 49.007H53.86L66.697 9.075h3.591L63.34.195z" fill="url(#paint2_linear_3775_18633)"/><path d="M41.785 49.005h.938l12.79-39.92h-.935l-12.793 39.92z" fill="#fff" opacity=".5"/><path d="M66.697 9.075h3.592l-6.95-8.88-16.075 48.812h6.596L66.697 9.075z" fill="#85CF43" opacity=".3"/><path d="M46.312 14.54H34.237l-11.12 34.468h12.077L46.312 14.54z" fill="url(#paint3_linear_3775_18633)"/><path d="M34.237 14.54h.937l-11.12 34.468h-.937l11.12-34.469z" fill="#fff" opacity=".5"/><path d="M46.312 14.54h-6.136L29.06 49.007h6.135L46.312 14.54z" fill="#5F9F2E" opacity=".3"/><path d="M27.708 14.54H15.633L4.513 49.007H16.59L27.708 14.54z" fill="url(#paint4_linear_3775_18633)"/><path d="M16.57 14.54h-.937L4.513 49.007h.938l11.12-34.469z" fill="#fff" opacity=".5"/><path d="M27.709 14.54h-5.907L10.684 49.007h5.907L27.709 14.54z" fill="#447D1A" opacity=".3"/><path d="M1.988 60.697L0 55.138h.938l1.455 4.287.12.365 1.677-4.652h.962l1.694 4.644.12-.359 1.454-4.286h.89l-1.996 5.558h-.978l-1.534-4.182-.152-.47-.143.47-1.535 4.182h-.986l.002.002zm8.27-.002v-5.558h.882v5.558h-.882zm1.867-.739l.406-.589c.313.217.698.401 1.158.553.46.152.895.227 1.307.227 1.156 0 1.733-.31 1.733-.931 0-.276-.112-.48-.337-.613-.225-.132-.617-.242-1.172-.326l-.907-.152c-.732-.116-1.25-.302-1.555-.556-.305-.254-.457-.598-.457-1.034 0-.541.22-.936.66-1.185.44-.25 1.026-.373 1.758-.373.991 0 1.85.225 2.576.676l-.302.58c-.593-.38-1.346-.572-2.258-.572-.525 0-.918.069-1.177.207-.26.139-.39.36-.39.669 0 .217.06.385.175.5.116.106.246.181.39.227.143.046.376.091.7.139l1.223.223c.711.116 1.219.287 1.523.514.305.225.457.57.457 1.037 0 .593-.241 1.02-.724 1.28-.488.264-1.11.397-1.868.397a5.005 5.005 0 01-1.626-.265c-.522-.178-.952-.389-1.291-.633h-.002zm6.537.739v-5.558h2.68c1.04 0 1.869.241 2.489.724.62.482.93 1.157.93 2.028 0 .911-.316 1.607-.95 2.087-.633.48-1.49.719-2.573.719h-2.576zm.876-.693h1.805c.784 0 1.397-.18 1.837-.541.44-.36.66-.873.66-1.535 0-.662-.213-1.185-.64-1.55-.428-.365-1.023-.55-1.786-.55h-1.876v4.176zm5.788-2.088c-.01-.864.304-1.572.943-2.123.639-.55 1.46-.822 2.46-.81 1.013 0 1.833.269 2.46.807.628.538.943 1.247.943 2.128 0 .88-.313 1.59-.938 2.13-.626.542-1.449.81-2.473.81-1.003.01-1.821-.257-2.457-.806-.636-.55-.949-1.26-.938-2.136zm5.877 0c0-.69-.224-1.233-.672-1.63-.448-.398-1.048-.597-1.802-.597-.753 0-1.335.202-1.793.605-.458.402-.688.944-.688 1.622 0 .678.23 1.228.688 1.63.458.403 1.056.605 1.793.605.737 0 1.334-.202 1.789-.605.456-.402.683-.945.683-1.63h.002zm2.012 2.781v-5.558h1.152l2.164 4.23.246.661.246-.66 2.164-4.231h1.144v5.558h-.826v-4.063l.016-.669-.279.669-2.1 4.063h-.787l-2.1-4.063-.287-.691.024.69v4.064h-.78.002zm10.4 0V56.25h-2.369v-1.113h6.186v1.113h-2.354v4.445h-1.463zm4.627 0v-5.558h1.463v2.178h3.38v-2.178h1.462v5.558h-1.462v-2.297h-3.38v2.297h-1.463zm7.689 0v-5.558h3.524c.678 0 1.237.135 1.677.406.436.27.653.715.653 1.335 0 .372-.1.67-.299.895-.199.225-.499.401-.903.528.238.017.461.133.668.35.208.218.327.51.358.877l.039.564c.032.233.088.435.166.605h-1.511a2.565 2.565 0 01-.111-.597l-.048-.5a.845.845 0 00-.378-.664c-.225-.152-.514-.227-.862-.227h-1.535v1.987h-1.44l.002-.001zm1.44-3.031h1.846c.35 0 .61-.059.779-.175.17-.115.254-.317.254-.604 0-.255-.083-.432-.25-.534-.167-.1-.415-.151-.744-.151H57.37v1.464zm5.512 3.031v-5.558h5.422v1.089h-3.96v1.153h3.41v1.002h-3.41v1.225H68.4v1.089h-5.52.002zm6.599 0v-5.558h5.423v1.089h-3.96v1.153h3.41v1.002h-3.41v1.225H75v1.089h-5.52.002z" fill="#fff"/><defs><linearGradient id="paint0_linear_3775_18633" x1="30.055" y1="48.997" x2="21.641" y2="17.754" gradientUnits="userSpaceOnUse"><stop stop-color="#7DC540"/><stop offset=".24" stop-color="#77BD3C"/><stop offset=".6" stop-color="#66A932"/><stop offset=".75" stop-color="#5F9F2E"/><stop offset="1" stop-color="#447D1A"/></linearGradient><linearGradient id="paint1_linear_3775_18633" x1="48.663" y1="48.997" x2="40.248" y2="17.754" gradientUnits="userSpaceOnUse"><stop stop-color="#85CF43"/><stop offset=".56" stop-color="#85CF43"/><stop offset=".96" stop-color="#7DC540"/></linearGradient><linearGradient id="paint2_linear_3775_18633" x1="64.235" y1="49.082" x2="64.235" y2="1.094" gradientUnits="userSpaceOnUse"><stop stop-color="#85CF43"/><stop offset="1" stop-color="#85CF43"/></linearGradient><linearGradient id="paint3_linear_3775_18633" x1="45.612" y1="48.938" x2="45.612" y2="14.588" gradientUnits="userSpaceOnUse"><stop stop-color="#5F9F2E"/><stop offset=".19" stop-color="#66A932"/><stop offset=".68" stop-color="#77BD3C"/><stop offset="1" stop-color="#7DC540"/></linearGradient><linearGradient id="paint4_linear_3775_18633" x1="27.009" y1="48.716" x2="27.009" y2="14.823" gradientUnits="userSpaceOnUse"><stop stop-color="#85CF43"/><stop offset=".19" stop-color="#7FC73F"/><stop offset=".48" stop-color="#6EB234"/><stop offset=".82" stop-color="#549124"/><stop offset="1" stop-color="#447D1A"/></linearGradient></defs></svg>