<svg width="1739" height="938" fill="none" xmlns="http://www.w3.org/2000/svg"><path fill-rule="evenodd" clip-rule="evenodd" d="M0 0l130.023 208.267 128.361 51.795 93.688 167.181 272.921-49.928 273.237 49.986 156.75-156.752 29.97-63.394 40.14 26.201 55.58-231.96 56.86 97.9L1272 300.03l101.96-77.167 28.27 204.16 177.67-44.696 158.6 61.961v493.043H0V0zm3.377 11.785v922.171H1735.12V446.595l-155.44-60.729-180.28 45.352-28-202.185-101.78 77.041-35.32-205.608-52.32-90.077-54.73 228.414-40.9-26.703-28.57 60.423-158.415 158.418-274.372-50.193-274.687 50.251-94.287-168.25-128.278-51.761L3.377 11.785z" fill="url(#paint0_linear_3775_18774)"/><defs><linearGradient id="paint0_linear_3775_18774" x1="1.688" y1="713.9" x2="1737.37" y2="697.578" gradientUnits="userSpaceOnUse"><stop stop-color="#1F1F1F"/><stop offset=".515" stop-color="#8A8A8A"/><stop offset="1" stop-color="#1F1F1F"/></linearGradient></defs></svg>