<svg width="46" height="59" fill="none" xmlns="http://www.w3.org/2000/svg"><path d="M22.59 32.273c-3.012 0-5.378 2.367-5.378 5.379 0 1.721.86 3.227 2.151 4.303v4.303c0 1.721 1.506 3.227 3.228 3.227 1.72 0 3.227-1.506 3.227-3.227v-4.303c1.29-1.076 2.151-2.582 2.151-4.303 0-3.012-2.367-5.379-5.379-5.379zm1.076 8.391v5.594c0 .645-.43 1.076-1.076 1.076-.645 0-1.075-.43-1.075-1.076v-5.594c-1.291-.43-2.152-1.721-2.152-3.012 0-1.721 1.506-3.227 3.228-3.227 1.72 0 3.227 1.506 3.227 3.227 0 1.506-.861 2.582-2.152 3.012z" fill="#86D141"/><path d="M38.726 23.666v-7.53C38.726 7.315 31.411 0 22.59 0 13.77 0 6.454 7.315 6.454 16.136v7.53C2.797 23.666 0 26.463 0 30.12v21.515c0 3.657 2.797 6.454 6.454 6.454h32.272c3.658 0 6.455-2.797 6.455-6.454V30.12c0-3.442-2.797-6.454-6.455-6.454zm-30.12-7.53c0-7.745 6.239-13.984 13.984-13.984S36.575 8.39 36.575 16.136v7.53h-2.152v-7.53c0-6.454-5.378-11.833-11.833-11.833-6.454 0-11.833 5.378-11.833 11.833v7.53H8.606v-7.53zm23.666 0v7.53H12.909v-7.53a9.641 9.641 0 019.681-9.682 9.641 9.641 0 019.682 9.682zm10.757 35.499a4.316 4.316 0 01-4.303 4.303H6.454a4.316 4.316 0 01-4.303-4.303V30.12a4.315 4.315 0 014.303-4.303h32.272a4.316 4.316 0 014.303 4.303v21.515z" fill="#86D141"/></svg>