<svg width="65" height="62" fill="none" xmlns="http://www.w3.org/2000/svg"><path d="M50.492 28.052a17.252 17.252 0 00-2.95-7.142 1.165 1.165 0 00-.77-.47 3.481 3.481 0 01-1.963-.977 3.481 3.481 0 01-.976-1.963 1.165 1.165 0 00-.471-.77 17.19 17.19 0 00-7.142-2.95c-.31-.046-.62.023-.872.207a3.497 3.497 0 01-4.145 0 1.128 1.128 0 00-.873-.207 17.252 17.252 0 00-7.141 2.95c-.253.184-.425.46-.471.77a3.481 3.481 0 01-.976 1.963 3.481 3.481 0 01-1.964.976c-.31.046-.585.219-.769.471a17.19 17.19 0 00-2.95 7.142c-.047.31.022.62.206.872.448.62.689 1.332.689 2.079 0 .746-.241 1.458-.689 2.078a1.128 1.128 0 00-.207.872 17.253 17.253 0 002.951 7.142c.184.253.46.425.77.47a3.48 3.48 0 011.963.977 3.48 3.48 0 01.976 1.963c.046.31.218.586.47.77a17.19 17.19 0 007.142 2.95c.069 0 .126.012.195.012.241 0 .483-.08.678-.23a3.497 3.497 0 014.145 0c.252.184.562.264.872.207a17.408 17.408 0 007.142-2.951c.252-.184.425-.46.47-.77a3.481 3.481 0 01.977-1.963 3.481 3.481 0 011.963-.976c.31-.046.586-.218.77-.47a17.19 17.19 0 002.95-7.142c.058-.31-.023-.62-.207-.873a3.517 3.517 0 01-.688-2.066c0-.735.24-1.459.688-2.067.184-.253.265-.563.207-.873v-.011zm-2.342 5.947a15.013 15.013 0 01-2.228 5.385 5.73 5.73 0 00-2.732 1.527 5.73 5.73 0 00-1.527 2.733 15.011 15.011 0 01-5.385 2.227 5.676 5.676 0 00-3.008-.85c-1.068 0-2.09.288-3.009.85a15.011 15.011 0 01-5.385-2.227 5.73 5.73 0 00-1.527-2.733 5.73 5.73 0 00-2.732-1.527A15.011 15.011 0 0118.389 34c.563-.907.85-1.94.85-3.008s-.287-2.09-.85-3.008a15.011 15.011 0 012.228-5.385 5.73 5.73 0 002.732-1.527 5.678 5.678 0 001.527-2.733 15.013 15.013 0 015.385-2.227 5.814 5.814 0 006.005 0c1.94.39 3.743 1.136 5.385 2.227a5.73 5.73 0 001.527 2.733 5.73 5.73 0 002.733 1.527 15.013 15.013 0 012.227 5.385 5.676 5.676 0 00-.85 3.008c0 1.068.288 2.09.85 3.008h.012z" fill="#86D141"/><path d="M33.291 19.52c-6.326 0-11.481 5.155-11.481 11.48 0 6.327 5.155 11.482 11.481 11.482 6.327 0 11.482-5.155 11.482-11.482 0-6.326-5.155-11.482-11.482-11.482zm0 20.667c-5.063 0-9.185-4.122-9.185-9.186 0-5.063 4.122-9.185 9.185-9.185 5.064 0 9.186 4.122 9.186 9.185 0 5.064-4.122 9.186-9.186 9.186zM1.142 29.853c-.424 0-.815.23-1.01.608a1.18 1.18 0 00.057 1.183l4.593 6.889c.218.321.574.516.953.516s.746-.195.953-.516l4.593-6.89c.23-.355.252-.803.057-1.182a1.13 1.13 0 00-1.01-.608h-1.09C9.845 17.096 20.385 6.889 33.29 6.889V4.593c-14.18 0-25.776 11.229-26.373 25.26H4.62C5.23 14.559 17.848 2.296 33.291 2.296V0C16.585 0 2.922 13.284 2.325 29.853H1.142zm7.039 2.296l-2.446 3.674L3.29 32.15h4.89zm17.682 26.578C18.457 56.741 12.268 52 8.433 45.351l-1.986 1.148c5.741 9.932 16.178 15.49 26.902 15.49 4.891 0 9.84-1.172 14.433-3.606l.597 1.022c.206.356.585.574.999.574h.034c.425-.012.804-.264.987-.643l3.675-7.417c.172-.345.16-.747-.035-1.08a1.153 1.153 0 00-.918-.574l-8.267-.528a1.15 1.15 0 00-1.045.54c-.218.356-.23.815-.023 1.182l.551.942c-5.339 2.755-11.424 3.456-17.269 1.883a23.947 23.947 0 01-14.639-11.23l-1.986 1.149c4.891 8.462 13.778 13.204 22.918 13.204a26.17 26.17 0 0012.147-2.997l1.148 1.998c-6.406 3.376-13.743 4.202-20.77 2.32h-.023zm25.386-6.269l-1.952 3.95-2.445-4.237 4.397.287zm-1.48-47.706l.585-1.022a1.151 1.151 0 00-.023-1.183c-.23-.356-.631-.574-1.045-.54l-8.267.529a1.153 1.153 0 00-.918.574 1.126 1.126 0 00-.035 1.079l3.675 7.417c.183.38.574.62.987.643h.034c.414 0 .793-.218 1-.574l.55-.941c5.064 3.249 8.704 8.175 10.265 14.019 1.665 6.223.815 12.722-2.411 18.302l1.986 1.148c7.085-12.274 3.158-27.935-8.691-35.479l1.148-1.986c12.94 8.175 17.245 25.237 9.53 38.613l1.986 1.148c8.359-14.467 3.674-32.94-10.368-41.747h.012zm-4.926 3.926l-1.952-3.95 4.397-.286-2.445 4.236z" fill="#86D141"/></svg>