<svg width="58" height="58" fill="none" xmlns="http://www.w3.org/2000/svg"><path d="M29.006 58.006v-1.394l-.002 1.394C13.013 58.006.001 44.996 0 29.003 0 13.011 13.01 0 29.003 0c15.992 0 29.003 13.01 29.003 29.003 0 15.992-13.009 29.003-29 29.003zm-.003-55.219c-14.455 0-26.216 11.76-26.216 26.216.001 14.455 11.762 26.216 26.217 26.216h.002c14.455 0 26.213-11.76 26.213-26.216 0-14.455-11.76-26.216-26.216-26.216z" fill="#86D141"/><path d="M29.004 45.618c-5.269 0-9.557-4.04-9.557-9.004a1.393 1.393 0 112.787 0c0 3.428 3.037 6.217 6.77 6.217 3.733 0 6.77-2.79 6.77-6.217 0-3.429-3.037-6.218-6.77-6.218-5.269 0-9.557-4.04-9.557-9.005 0-4.965 4.288-9.004 9.557-9.004 2.83 0 5.497 1.17 7.317 3.212a1.394 1.394 0 01-2.08 1.855c-1.292-1.45-3.2-2.28-5.237-2.28-3.732 0-6.77 2.789-6.77 6.217 0 3.429 3.037 6.218 6.77 6.218 5.27 0 9.556 4.04 9.556 9.005.001 4.965-4.286 9.004-9.556 9.004z" fill="#86D141"/><path d="M28.749 49.782c-.77 0-1.393-.623-1.393-1.393V9.616a1.393 1.393 0 112.787 0V48.39c0 .77-.624 1.393-1.394 1.393z" fill="#86D141"/></svg>