<svg width="62" height="62" fill="none" xmlns="http://www.w3.org/2000/svg"><path d="M60.368 0H45.684c-.897 0-1.631.734-1.631 1.632v27.573H32.632V17.947c0-.897-.735-1.631-1.632-1.631H16.316c-.898 0-1.632.734-1.632 1.631v25.208H1.632C.734 43.155 0 43.89 0 44.787v15.581C0 61.266.734 62 1.632 62h58.736c.898 0 1.632-.734 1.632-1.632V1.632C62 .734 61.266 0 60.368 0zM14.684 58.737H3.264V46.418h11.42v12.319zm14.684 0h-11.42V19.579h11.42v39.158zm14.685 0H32.632V32.468h11.42v26.269zm14.684 0H47.316V3.263h11.42v55.474z" fill="#86D141"/></svg>