<svg width="72" height="63" fill="none" xmlns="http://www.w3.org/2000/svg"><path d="M36.01 5.504a23.755 23.755 0 0116.841 6.978l.003.002.002.002v.003a23.755 23.755 0 016.978 16.84 23.757 23.757 0 01-6.978 16.842l-.004.005c-4.312 4.309-10.266 6.978-16.843 6.978a23.756 23.756 0 01-16.842-6.978l-.005-.005a23.751 23.751 0 01-6.977-16.842 23.76 23.76 0 016.978-16.847 23.76 23.76 0 0116.846-6.978zm15.29 8.529a21.552 21.552 0 00-15.29-6.33 21.559 21.559 0 00-15.292 6.334 21.566 21.566 0 00-6.332 15.292 21.571 21.571 0 006.332 15.293 21.571 21.571 0 0015.293 6.332 21.572 21.572 0 0015.294-6.332 21.571 21.571 0 006.332-15.293 21.552 21.552 0 00-6.33-15.292l-.006-.004z" fill="#86D141"/><path d="M58.066 22.727a1.1 1.1 0 010 2.2H38.852a12.42 12.42 0 01-8.803-3.661 12.424 12.424 0 01-3.661-8.802V8.256a1.1 1.1 0 012.199 0v4.208c0 2.82 1.157 5.388 3.015 7.246a10.23 10.23 0 007.246 3.015h19.218v.002zm-44.108 2.197a1.1 1.1 0 010-2.2c2.149 0 4.009-.085 5.645-.605 1.583-.501 3.028-1.434 4.437-3.14a1.1 1.1 0 011.693 1.402c-1.711 2.07-3.494 3.214-5.466 3.837-1.922.607-3.97.706-6.309.706zM42.22 44.023a1.096 1.096 0 01.85 2.018 18.184 18.184 0 01-7.058 1.43 18.28 18.28 0 01-7.06-1.43 1.096 1.096 0 01-.584-1.434 1.096 1.096 0 011.434-.584c.964.408 1.984.724 3.033.937 1.01.204 2.073.312 3.177.312a16.08 16.08 0 003.178-.312 15.975 15.975 0 003.03-.937zm18.95-3.884a1.1 1.1 0 011.439-.589 1.1 1.1 0 01.589 1.439 32.3 32.3 0 01-.591 1.3v.006c-.198.407-.417.836-.656 1.276A28.38 28.38 0 0160.474 46l.002.002c-.268.395-.54.782-.818 1.153l-.052.064a29.446 29.446 0 01-2.73 3.15l-.072.064c-.29.289-.614.596-.955.905l.002.002c-.325.296-.685.605-1.074.926v.002c-.376.31-.752.605-1.118.88a29.728 29.728 0 01-3.593 2.298l-.055.027c-.419.227-.829.438-1.219.626l-.05.027c-.44.21-.861.403-1.25.566l-.085.032-.564.231-.03.012v.002l-.648.248-.025.009-.655.231-.023.007v.002l-.665.216-.084.025-.616.181-.026.007v.002l-.675.184a1.099 1.099 0 01-.566-2.124l.675-.183v.002l.587-.174.028-.009.664-.215v.002l.607-.215h.002l.648-.248.534-.217.07-.032c.418-.177.799-.349 1.151-.518l.049-.025c.398-.193.776-.383 1.124-.57l.062-.037a27.248 27.248 0 002.248-1.368 28.265 28.265 0 002.1-1.569h.005c.31-.254.644-.545.99-.861l.002.002.003-.002c.279-.255.577-.536.882-.841l.057-.062a26.863 26.863 0 002.536-2.912l.043-.062c.264-.352.518-.71.759-1.065l.002.002v-.002a25.707 25.707 0 001.365-2.252c.2-.366.401-.763.605-1.182v.003c.178-.37.359-.77.542-1.21zM7.924 23.784a5.982 5.982 0 00-3.143 1.657 5.987 5.987 0 00-1.758 4.242c0 1.657.674 3.16 1.758 4.243a5.982 5.982 0 003.143 1.656V23.784zm-4.699.104a8.183 8.183 0 015.76-2.404h.04a1.1 1.1 0 011.1 1.1V36.79a1.1 1.1 0 01-1.1 1.1 8.167 8.167 0 01-5.798-2.404 8.178 8.178 0 01-2.403-5.8 8.17 8.17 0 012.401-5.799zm59.77-2.404h.039a8.18 8.18 0 015.757 2.401l.004.005a8.178 8.178 0 012.401 5.796 8.175 8.175 0 01-2.4 5.798 8.182 8.182 0 01-5.8 2.403 1.1 1.1 0 01-1.1-1.1V22.584c0-.607.494-1.1 1.1-1.1zm4.25 3.957l-.005-.005a5.993 5.993 0 00-3.143-1.652v11.803a5.983 5.983 0 003.143-1.656 5.987 5.987 0 001.757-4.243 5.998 5.998 0 00-1.752-4.247z" fill="#86D141"/><path d="M10.847 18.872a1.094 1.094 0 11-2.018-.848A29.629 29.629 0 0119.516 5.042 29.43 29.43 0 0136.01 0a1.1 1.1 0 010 2.2c-2.745 0-5.434.4-7.993 1.181a27.241 27.241 0 00-7.276 3.48 27.392 27.392 0 00-5.823 5.292 27.391 27.391 0 00-4.071 6.719zm25.162 35.651c1.084 0 2.069.443 2.781 1.153l.005.004a3.936 3.936 0 11-5.57 5.567l-.004-.004a3.934 3.934 0 012.788-6.72zm1.237 2.708l-.005-.004a1.75 1.75 0 00-2.46.004c-.316.314-.51.752-.51 1.233 0 .483.192.918.503 1.23l.005.004c.31.312.747.505 1.23.505a1.737 1.737 0 001.739-1.741 1.73 1.73 0 00-.502-1.23z" fill="#86D141"/><path d="M63.193 18.024c.234.557-.027 1.2-.584 1.434a1.096 1.096 0 01-1.434-.584 27.4 27.4 0 00-9.897-12.009 27.24 27.24 0 00-7.275-3.48 27.355 27.355 0 00-7.993-1.182 1.1 1.1 0 010-2.2 29.446 29.446 0 0116.496 5.043 29.632 29.632 0 016.286 5.72 29.452 29.452 0 014.401 7.258z" fill="#86D141"/></svg>