<svg width="40" height="39" fill="none" xmlns="http://www.w3.org/2000/svg"><path d="M38.447 28.236l-4.85-4.9c-.802-.804-1.885-1.285-2.887-1.285-1.082 0-2.044.441-2.886 1.285l-2.806 2.811a1.87 1.87 0 00-.401-.2s-.04 0-.04-.04l-.04-.04a7.195 7.195 0 00-1.243-.684c-2.445-1.526-4.73-3.655-7.055-6.506-1.082-1.366-1.844-2.57-2.445-3.896a12.924 12.924 0 001.483-1.446l1.243-1.245c.962-.884 1.443-1.888 1.443-2.932 0-1.085-.481-2.089-1.403-3.053L12.752 2.29a29.22 29.22 0 00-1.123-1.084C10.827.442 9.825 0 8.783 0 7.62 0 6.658.402 5.776 1.285L2.85 4.217C1.688 5.302 1.006 6.667.846 8.354v.04c-.08 2.089.24 4.017 1.122 6.427 1.403 3.775 3.528 7.31 6.695 11.206 4.129 4.659 8.779 8.274 13.95 10.764l.12.04c1.523.683 4.41 1.968 7.616 2.169h.441c2.125 0 3.728-.683 5.051-2.129.481-.562 1.002-1.084 1.443-1.566.361-.281.602-.563.842-.844l.32-.32.08-.081c1.685-1.848 1.685-4.097-.08-5.824zm-1.403 4.458l-.401.402-.04.08c-.2.241-.361.442-.561.603l-.12.12a33.553 33.553 0 00-1.604 1.687c-.922 1.004-1.964 1.446-3.528 1.446h-.32c-2.806-.2-5.372-1.325-6.895-2.008l-.08-.04c-4.931-2.37-9.38-5.824-13.269-10.243-3.047-3.695-5.05-7.069-6.374-10.603-.801-2.21-1.082-3.816-1.002-5.623.12-1.165.561-2.089 1.363-2.812L7.18 2.731c.482-.482.963-.683 1.564-.683.521 0 1.002.241 1.443.643l.04.04c.36.322.722.683 1.082 1.044l3.809 3.816c.721.723.841 1.285.841 1.607 0 .321-.08.803-.841 1.486l-1.283 1.285a15.9 15.9 0 01-1.644 1.567l-.08.08-.08.12c-.36.482-.4.924-.2 1.567l.04.16.04.161c.681 1.486 1.523 2.852 2.726 4.378 2.485 3.053 4.97 5.342 7.616 6.989l.12.08c.32.16.642.321.922.482.12.12.28.2.401.241.16.08.28.12.36.2l.281.202h.08l.12.04c.241.08.402.08.522.08.4 0 .762-.16 1.122-.522l3.007-3.012c.48-.482.922-.683 1.483-.683.601 0 1.162.361 1.483.683l4.89 4.9c.963.964 1.003 1.968 0 3.012z" fill="#fff"/></svg>