<svg width="22" height="21" fill="none" xmlns="http://www.w3.org/2000/svg"><path d="M22 8.138c0-.327-.247-.53-.74-.609l-6.637-.966-2.975-6.02C11.48.18 11.264 0 11 0s-.48.18-.648.542L7.377 6.563.74 7.53c-.493.08-.74.282-.74.609 0 .185.11.397.33.635l4.813 4.684-1.137 6.616a2.15 2.15 0 00-.026.265.78.78 0 00.138.47c.093.128.232.192.417.192.159 0 .335-.053.529-.159L11 17.718l5.936 3.123c.186.106.362.159.53.159a.466.466 0 00.403-.192.782.782 0 00.138-.47c0-.114-.004-.203-.013-.265l-1.137-6.616 4.8-4.684c.229-.23.343-.441.343-.635z" fill="#86D141"/></svg>